<svg width="31" height="31" viewBox="0 0 31 31" fill="none" xmlns="http://www.w3.org/2000/svg">
<g clip-path="url(#clip0_31_21)">
<path opacity="0.4" d="M15.9844 2.63694V1.45312C15.9844 1.18575 15.7674 0.96875 15.5 0.96875C15.2326 0.96875 15.0156 1.18575 15.0156 1.45312V2.63694C15.0156 2.90431 15.2326 3.12131 15.5 3.12131C15.7674 3.12131 15.9844 2.90431 15.9844 2.63694Z" fill="white"/>
<path opacity="0.4" d="M15.0156 28.3631V29.5469C15.0156 29.8143 15.2326 30.0313 15.5 30.0313C15.7674 30.0313 15.9844 29.8143 15.9844 29.5469V28.3631C15.9844 28.0957 15.7674 27.8787 15.5 27.8787C15.2326 27.8787 15.0156 28.0957 15.0156 28.3631Z" fill="white"/>
<path opacity="0.4" d="M28.363 15.0156C28.0957 15.0156 27.8787 15.2326 27.8787 15.5C27.8787 15.7674 28.0957 15.9844 28.363 15.9844H29.5468C29.8142 15.9844 30.0312 15.7674 30.0312 15.5C30.0312 15.2326 29.8142 15.0156 29.5468 15.0156H28.363Z" fill="white"/>
<path opacity="0.4" d="M1.45312 15.9844H2.63694C2.90431 15.9844 3.12131 15.7674 3.12131 15.5C3.12131 15.2326 2.90431 15.0156 2.63694 15.0156H1.45312C1.18575 15.0156 0.96875 15.2326 0.96875 15.5C0.96875 15.7674 1.18575 15.9844 1.45312 15.9844Z" fill="white"/>
<path opacity="0.4" d="M25.775 5.22496C25.5856 5.03557 25.2795 5.03557 25.0901 5.22496L24.2531 6.06196C24.0637 6.25135 24.0637 6.55747 24.2531 6.74687C24.3476 6.84132 24.4716 6.88879 24.5956 6.88879C24.7196 6.88879 24.8436 6.84132 24.938 6.74687L25.775 5.90987C25.9644 5.72048 25.9644 5.41435 25.775 5.22496Z" fill="#15F2CD"/>
<path opacity="0.4" d="M5.22505 25.775C5.3195 25.8695 5.4435 25.917 5.5675 25.917C5.6915 25.917 5.8155 25.8695 5.90996 25.775L6.74696 24.938C6.93635 24.7486 6.93635 24.4425 6.74696 24.2531C6.55757 24.0637 6.25144 24.0637 6.06205 24.2531L5.22505 25.0901C5.03566 25.2795 5.03566 25.5856 5.22505 25.775Z" fill="#15F2CD"/>
<path opacity="0.4" d="M25.0901 25.775C25.1846 25.8695 25.3086 25.917 25.4326 25.917C25.5566 25.917 25.6806 25.8695 25.775 25.775C25.9644 25.5856 25.9644 25.2795 25.775 25.0901L24.938 24.2531C24.7486 24.0637 24.4425 24.0637 24.2531 24.2531C24.0637 24.4425 24.0637 24.7486 24.2531 24.938L25.0901 25.775Z" fill="#15F2CD"/>
<path opacity="0.4" d="M6.06205 6.74687C6.1565 6.84132 6.2805 6.88879 6.4045 6.88879C6.5285 6.88879 6.6525 6.84132 6.74696 6.74687C6.93635 6.55747 6.93635 6.25135 6.74696 6.06196L5.90996 5.22496C5.72057 5.03557 5.41444 5.03557 5.22505 5.22496C5.03566 5.41435 5.03566 5.72048 5.22505 5.90987L6.06205 6.74687Z" fill="#15F2CD"/>
<path d="M25.0808 15.5C25.0808 10.2155 20.7844 5.91907 15.4999 5.91907C10.2154 5.91907 5.91895 10.2155 5.91895 15.5C5.91895 20.7845 10.2154 25.0809 15.4999 25.0809C20.7844 25.0809 25.0808 20.7845 25.0808 15.5ZM19.8447 13.4027L14.9719 18.2803C14.875 18.3723 14.7491 18.4208 14.628 18.4208C14.5021 18.4208 14.381 18.3723 14.2841 18.2803L11.155 15.1513C10.9661 14.9623 10.9661 14.6523 11.155 14.4634C11.3439 14.2745 11.6491 14.2745 11.838 14.4634L14.628 17.2534L19.1618 12.7197C19.3507 12.5308 19.6558 12.5308 19.8447 12.7197C20.0336 12.9086 20.0336 13.2138 19.8447 13.4027Z" fill="url(#paint0_linear_31_21)"/>
</g>
<defs>
<linearGradient id="paint0_linear_31_21" x1="4.17267" y1="4.55036" x2="27.2047" y2="37.7769" gradientUnits="userSpaceOnUse">
<stop stop-color="white"/>
<stop offset="1" stop-color="#15F2CD"/>
</linearGradient>
<clipPath id="clip0_31_21">
<rect width="31" height="31" fill="white"/>
</clipPath>
</defs>
</svg>
