<svg width="32" height="31" viewBox="0 0 32 31" fill="none" xmlns="http://www.w3.org/2000/svg">
<path opacity="0.4" d="M16.4844 2.63694V1.45312C16.4844 1.18575 16.2674 0.96875 16 0.96875C15.7326 0.96875 15.5156 1.18575 15.5156 1.45312V2.63694C15.5156 2.90431 15.7326 3.12131 16 3.12131C16.2674 3.12131 16.4844 2.90431 16.4844 2.63694Z" fill="white"/>
<path opacity="0.4" d="M15.5156 28.363V29.5468C15.5156 29.8142 15.7326 30.0312 16 30.0312C16.2674 30.0312 16.4844 29.8142 16.4844 29.5468V28.363C16.4844 28.0957 16.2674 27.8787 16 27.8787C15.7326 27.8787 15.5156 28.0957 15.5156 28.363Z" fill="white"/>
<path opacity="0.4" d="M28.863 15.0156C28.5957 15.0156 28.3787 15.2326 28.3787 15.5C28.3787 15.7674 28.5957 15.9844 28.863 15.9844H30.0468C30.3142 15.9844 30.5312 15.7674 30.5312 15.5C30.5312 15.2326 30.3142 15.0156 30.0468 15.0156H28.863Z" fill="white"/>
<path opacity="0.4" d="M1.95312 15.9844H3.13694C3.40431 15.9844 3.62131 15.7674 3.62131 15.5C3.62131 15.2326 3.40431 15.0156 3.13694 15.0156H1.95312C1.68575 15.0156 1.46875 15.2326 1.46875 15.5C1.46875 15.7674 1.68575 15.9844 1.95312 15.9844Z" fill="white"/>
<path opacity="0.4" d="M26.275 5.22493C26.0856 5.03554 25.7795 5.03554 25.5901 5.22493L24.7531 6.06193C24.5637 6.25132 24.5637 6.55744 24.7531 6.74684C24.8476 6.84129 24.9716 6.88876 25.0956 6.88876C25.2196 6.88876 25.3436 6.84129 25.438 6.74684L26.275 5.90984C26.4644 5.72044 26.4644 5.41432 26.275 5.22493Z" fill="#15F2CD"/>
<path opacity="0.4" d="M5.72505 25.775C5.8195 25.8695 5.9435 25.917 6.0675 25.917C6.1915 25.917 6.3155 25.8695 6.40996 25.775L7.24696 24.938C7.43635 24.7486 7.43635 24.4425 7.24696 24.2531C7.05757 24.0637 6.75144 24.0637 6.56205 24.2531L5.72505 25.0901C5.53566 25.2795 5.53566 25.5856 5.72505 25.775Z" fill="#15F2CD"/>
<path opacity="0.4" d="M25.5901 25.775C25.6846 25.8695 25.8086 25.917 25.9326 25.917C26.0566 25.917 26.1806 25.8695 26.275 25.775C26.4644 25.5856 26.4644 25.2795 26.275 25.0901L25.438 24.2531C25.2486 24.0637 24.9425 24.0637 24.7531 24.2531C24.5637 24.4425 24.5637 24.7486 24.7531 24.938L25.5901 25.775Z" fill="#15F2CD"/>
<path opacity="0.4" d="M6.56205 6.74684C6.6565 6.84129 6.7805 6.88876 6.9045 6.88876C7.0285 6.88876 7.1525 6.84129 7.24696 6.74684C7.43635 6.55744 7.43635 6.25132 7.24696 6.06193L6.40996 5.22493C6.22057 5.03554 5.91444 5.03554 5.72505 5.22493C5.53566 5.41432 5.53566 5.72044 5.72505 5.90984L6.56205 6.74684Z" fill="#15F2CD"/>
<circle cx="16" cy="15" r="9" fill="url(#paint0_linear_124_674)"/>
<g clip-path="url(#clip0_124_674)">
<path d="M17.12 17.03L17.84 17.75H15.05C13.295 17.75 11.9 16.355 11.9 14.6H11C11 16.85 12.8 18.65 15.05 18.65H17.84L17.12 19.37L17.75 20L19.55 18.2L17.75 16.4L17.12 17.03Z" fill="#0F0F0F"/>
<path d="M13.88 13.97L13.16 13.25H15.95C17.705 13.25 19.1 14.645 19.1 16.4H20C20 14.15 18.2 12.35 15.95 12.35H13.16L13.88 11.63L13.25 11L11.45 12.8L13.25 14.6L13.88 13.97Z" fill="#0F0F0F"/>
</g>
<defs>
<linearGradient id="paint0_linear_124_674" x1="5.35961" y1="4.71429" x2="26.9951" y2="35.9261" gradientUnits="userSpaceOnUse">
<stop stop-color="white"/>
<stop offset="1" stop-color="#15F2CD"/>
</linearGradient>
<clipPath id="clip0_124_674">
<rect width="9" height="9" fill="white" transform="translate(11 11)"/>
</clipPath>
</defs>
</svg>
