<svg width="29" height="29" viewBox="0 0 29 29" fill="none" xmlns="http://www.w3.org/2000/svg">
<path d="M24.4437 10.2429H13.6637C12.0214 10.2429 10.686 11.5837 10.686 13.226V24.0006C10.686 25.6429 12.0214 26.9837 13.6637 26.9837H24.4437C26.0861 26.9837 27.4214 25.6429 27.4214 24.0006V13.226C27.4214 11.5837 26.0861 10.2429 24.4437 10.2429ZM15.8822 17.3937C14.7999 17.3937 13.9222 16.516 13.9222 15.4391C13.9222 14.3568 14.7999 13.4791 15.8822 13.4791C16.9591 13.4791 17.8368 14.3568 17.8368 15.4391C17.8368 16.516 16.9591 17.3937 15.8822 17.3937ZM22.2253 23.7422C21.1483 23.7422 20.2706 22.8645 20.2706 21.7875C20.2706 20.7052 21.1483 19.8275 22.2253 19.8275C23.3076 19.8275 24.1799 20.7052 24.1799 21.7875C24.1799 22.8645 23.3076 23.7422 22.2253 23.7422Z" fill="url(#paint0_linear_111_24)"/>
<path d="M13.6637 9.16601H18.3106V4.31447C18.3106 2.67217 16.9752 1.33676 15.3329 1.33676H4.55287C2.91057 1.33676 1.5752 2.67217 1.5752 4.31447V15.0945C1.5752 16.7368 2.91057 18.0722 4.55287 18.0722H9.60903V13.226C9.60903 10.986 11.429 9.16601 13.6637 9.16601ZM13.1198 4.57292C14.1967 4.57292 15.0744 5.45062 15.0744 6.52754C15.0744 7.60985 14.1967 8.48216 13.1198 8.48216C12.0375 8.48216 11.1598 7.60985 11.1598 6.52754C11.1598 5.45062 12.0375 4.57292 13.1198 4.57292ZM6.77133 14.8306C5.68905 14.8306 4.81135 13.9583 4.81135 12.876C4.81135 11.7937 5.68905 10.9214 6.77133 10.9214C7.84825 10.9214 8.72595 11.7937 8.72595 12.876C8.72595 13.9583 7.84825 14.8306 6.77133 14.8306ZM6.77133 8.48216C5.68905 8.48216 4.81135 7.60985 4.81135 6.52754C4.81135 5.45062 5.68905 4.57292 6.77133 4.57292C7.84825 4.57292 8.72595 5.45062 8.72595 6.52754C8.72595 7.60985 7.84825 8.48216 6.77133 8.48216Z" fill="url(#paint1_linear_111_24)"/>
<defs>
<linearGradient id="paint0_linear_111_24" x1="9.16089" y1="9.04715" x2="29.285" y2="38.0694" gradientUnits="userSpaceOnUse">
<stop stop-color="white"/>
<stop offset="1" stop-color="#15F2CD"/>
</linearGradient>
<linearGradient id="paint1_linear_111_24" x1="0.0500488" y1="0.141376" x2="20.1655" y2="29.1604" gradientUnits="userSpaceOnUse">
<stop stop-color="white"/>
<stop offset="1" stop-color="#15F2CD"/>
</linearGradient>
</defs>
</svg>
