<svg width="39" height="39" viewBox="0 0 39 39" fill="none" xmlns="http://www.w3.org/2000/svg">
<path d="M31 15.5308C31 11.3752 27.4733 8.00189 23.1289 8.00189H15.8711C11.5267 8.00189 8 11.3752 8 15.5308V22.4486C8 26.6286 11.5267 30.0019 15.8711 30.0019H23.1033C27.4733 30.0019 31 26.6286 31 22.473V15.5308ZM12.7022 15.9708C12.3444 15.9708 12.0633 15.7019 12.0633 15.3597C12.0633 15.0174 12.3444 14.7486 12.7022 14.7486H17.1233C17.4811 14.7486 17.7622 15.0174 17.7622 15.3597C17.7622 15.7019 17.4811 15.9708 17.1233 15.9708H16.6378C16.3822 16.6552 15.6922 17.1197 14.9 17.1197C14.1078 17.1197 13.4178 16.6308 13.1622 15.9708H12.7022ZM24.4578 20.5908C23.1033 20.8841 21.3144 20.4197 18.5289 21.3486C15.7433 22.2774 13.6222 23.0352 14.4144 22.473C14.4144 22.473 18.4778 20.273 21.5956 20.0774C24.6878 19.8819 25.8122 20.2974 24.4578 20.5908ZM26.2978 15.9708H25.8122C25.5567 16.6552 24.8667 17.1197 24.0744 17.1197C23.2822 17.1197 22.5922 16.6308 22.3367 15.9708H21.8511C21.4933 15.9708 21.2122 15.7019 21.2122 15.3597C21.2122 15.0174 21.4933 14.7486 21.8511 14.7486H26.2722C26.63 14.7486 26.9111 15.0174 26.9111 15.3597C26.9367 15.7019 26.6556 15.9708 26.2978 15.9708Z" fill="url(#paint0_linear_31_138)"/>
<defs>
<linearGradient id="paint0_linear_31_138" x1="5.90394" y1="6.43046" x2="31.9157" y2="45.6614" gradientUnits="userSpaceOnUse">
<stop stop-color="white"/>
<stop offset="1" stop-color="#15F2CD"/>
</linearGradient>
</defs>
</svg>
