<svg width="37" height="37" viewBox="0 0 37 37" fill="none" xmlns="http://www.w3.org/2000/svg">
<path opacity="0.4" d="M19.0781 3.14731V1.73438C19.0781 1.41525 18.8191 1.15625 18.5 1.15625C18.1809 1.15625 17.9219 1.41525 17.9219 1.73438V3.14731C17.9219 3.46644 18.1809 3.72544 18.5 3.72544C18.8191 3.72544 19.0781 3.46644 19.0781 3.14731Z" fill="white"/>
<path opacity="0.4" d="M17.9219 33.8529V35.2658C17.9219 35.585 18.1809 35.844 18.5 35.844C18.8191 35.844 19.0781 35.585 19.0781 35.2658V33.8529C19.0781 33.5338 18.8191 33.2748 18.5 33.2748C18.1809 33.2748 17.9219 33.5338 17.9219 33.8529Z" fill="white"/>
<path opacity="0.4" d="M33.853 17.9219C33.5339 17.9219 33.2749 18.1809 33.2749 18.5C33.2749 18.8191 33.5339 19.0781 33.853 19.0781H35.266C35.5851 19.0781 35.8441 18.8191 35.8441 18.5C35.8441 18.1809 35.5851 17.9219 35.266 17.9219H33.853Z" fill="white"/>
<path opacity="0.4" d="M1.73438 19.0781H3.14731C3.46644 19.0781 3.72544 18.8191 3.72544 18.5C3.72544 18.1809 3.46644 17.9219 3.14731 17.9219H1.73438C1.41525 17.9219 1.15625 18.1809 1.15625 18.5C1.15625 18.8191 1.41525 19.0781 1.73438 19.0781Z" fill="white"/>
<path opacity="0.4" d="M30.7619 6.23521C30.5358 6.00916 30.1705 6.00916 29.9444 6.23521L28.9454 7.23421C28.7194 7.46026 28.7194 7.82563 28.9454 8.05168C29.0581 8.16441 29.2061 8.22107 29.3541 8.22107C29.5021 8.22107 29.6501 8.16441 29.7629 8.05168L30.7619 7.05268C30.9879 6.82663 30.9879 6.46126 30.7619 6.23521Z" fill="#15F2CD"/>
<path opacity="0.4" d="M6.23496 30.7618C6.3477 30.8745 6.4957 30.9312 6.6437 30.9312C6.7917 30.9312 6.9397 30.8745 7.05243 30.7618L8.05143 29.7628C8.27748 29.5367 8.27748 29.1713 8.05143 28.9453C7.82539 28.7192 7.46001 28.7192 7.23397 28.9453L6.23496 29.9443C6.00892 30.1703 6.00892 30.5357 6.23496 30.7618Z" fill="#15F2CD"/>
<path opacity="0.4" d="M29.9444 30.7618C30.0571 30.8745 30.2051 30.9312 30.3531 30.9312C30.5011 30.9312 30.6491 30.8745 30.7619 30.7618C30.9879 30.5357 30.9879 30.1703 30.7619 29.9443L29.7629 28.9453C29.5368 28.7192 29.1715 28.7192 28.9454 28.9453C28.7194 29.1713 28.7194 29.5367 28.9454 29.7628L29.9444 30.7618Z" fill="#15F2CD"/>
<path opacity="0.4" d="M7.23397 8.05168C7.3467 8.16441 7.4947 8.22107 7.6427 8.22107C7.7907 8.22107 7.9387 8.16441 8.05143 8.05168C8.27748 7.82563 8.27748 7.46026 8.05143 7.23421L7.05243 6.23521C6.82639 6.00916 6.46101 6.00916 6.23496 6.23521C6.00892 6.46126 6.00892 6.82663 6.23496 7.05268L7.23397 8.05168Z" fill="#15F2CD"/>
<circle cx="19.0967" cy="17.9032" r="9.54839" fill="url(#paint0_linear_31_90)"/>
<g clip-path="url(#clip0_31_90)">
<path d="M17.2436 17.7726C17.0765 17.6056 16.8057 17.6056 16.6386 17.7726L15.6576 18.7536L14.6765 17.7726C14.5086 17.6105 14.2418 17.6128 14.0768 17.7778C13.9117 17.9428 13.9094 18.2097 14.0715 18.3776L15.0526 19.3586L14.0715 20.3397C13.9603 20.4471 13.9157 20.6062 13.9549 20.7557C13.994 20.9053 14.1108 21.0221 14.2604 21.0613C14.41 21.1005 14.5691 21.0558 14.6765 20.9446L15.6576 19.9636L16.6386 20.9446C16.8065 21.1068 17.0733 21.1044 17.2384 20.9394C17.4034 20.7744 17.4057 20.5075 17.2436 20.3397L16.2625 19.3586L17.2436 18.3776C17.4106 18.2105 17.4106 17.9397 17.2436 17.7726Z" fill="#171717"/>
<path d="M21.5898 19.3365C22.7472 18.4017 24.0579 17.3414 24.0579 15.9943C24.0579 14.5744 22.9068 13.4233 21.487 13.4233C20.0671 13.4233 18.916 14.5744 18.916 15.9943C18.916 16.2783 19.1462 16.5085 19.4302 16.5085C19.7142 16.5085 19.9444 16.2783 19.9444 15.9943C19.9444 15.1423 20.635 14.4517 21.487 14.4517C22.3389 14.4517 23.0295 15.1423 23.0295 15.9943C23.0295 16.8509 21.9209 17.7466 20.9424 18.5369C19.9007 19.3792 18.916 20.1746 18.916 21.1361C18.916 21.4201 19.1462 21.6503 19.4302 21.6503H23.5437C23.8277 21.6503 24.0579 21.4201 24.0579 21.1361C24.0579 20.8522 23.8277 20.622 23.5437 20.622H20.1814C20.6072 20.1479 21.079 19.7174 21.5898 19.3365Z" fill="#171717"/>
</g>
<defs>
<linearGradient id="paint0_linear_31_90" x1="7.80799" y1="6.9908" x2="30.7618" y2="40.1044" gradientUnits="userSpaceOnUse">
<stop stop-color="white"/>
<stop offset="1" stop-color="#15F2CD"/>
</linearGradient>
<clipPath id="clip0_31_90">
<rect width="13.0664" height="13.0664" fill="white" transform="translate(12 11)"/>
</clipPath>
</defs>
</svg>
